<?xml version="1.0" standalone="no"?><!DOCTYPE svg PUBLIC "-//W3C//DTD SVG 1.1//EN" "http://www.w3.org/Graphics/SVG/1.1/DTD/svg11.dtd"><svg t="1638152895077" class="icon" viewBox="0 0 1024 1024" version="1.1" xmlns="http://www.w3.org/2000/svg" p-id="6802" xmlns:xlink="http://www.w3.org/1999/xlink" width="200" height="200"><defs><style type="text/css"></style></defs><path d="M853.333333 42.666667a128 128 0 0 1 128 128v682.666666a128 128 0 0 1-128 128H256a128 128 0 0 1-128-128v-85.333333H106.666667a42.666667 42.666667 0 0 1-3.2-85.226667L106.666667 682.666667h21.333333v-128H106.666667a42.666667 42.666667 0 0 1-3.2-85.226667L106.666667 469.333333h21.333333v-117.333333H106.666667a42.666667 42.666667 0 0 1-3.2-85.226667L106.666667 266.666667h21.333333V170.666667a128 128 0 0 1 123.2-127.914667L256 42.666667z m0 85.333333H256a42.666667 42.666667 0 0 0-42.666667 42.666667v96h21.333334a42.666667 42.666667 0 0 1 3.2 85.226666L234.666667 352h-21.333334V469.333333h21.333334a42.666667 42.666667 0 0 1 3.2 85.226667L234.666667 554.666667h-21.333334v128h21.333334a42.666667 42.666667 0 0 1 3.2 85.226666L234.666667 768h-21.333334v85.333333a42.666667 42.666667 0 0 0 39.466667 42.56L256 896h597.333333a42.666667 42.666667 0 0 0 42.666667-42.666667V170.666667a42.666667 42.666667 0 0 0-42.666667-42.666667z m-383.381333 170.666667c18.133333 0 34.666667 10.346667 42.602667 26.645333l61.333333 125.824h4.224l63.594667-126.378667A47.402667 47.402667 0 0 1 684.053333 298.666667h16.704a26.410667 26.410667 0 0 1 22.826667 39.68l-85.653333 147.2h46.101333a23.36 23.36 0 0 1 0 46.741333h-68.48v41.813333h68.48a23.36 23.36 0 0 1 0 46.72h-68.48v63.146667a41.386667 41.386667 0 0 1-82.752 0V620.8h-68.48a23.36 23.36 0 0 1 0-46.72h68.48v-41.813333h-68.48a23.36 23.36 0 1 1 0-46.72h46.72l-82.496-145.877334A27.477333 27.477333 0 0 1 452.437333 298.666667z" p-id="6803"></path></svg>