<?xml version="1.0" standalone="no"?><!DOCTYPE svg PUBLIC "-//W3C//DTD SVG 1.1//EN" "http://www.w3.org/Graphics/SVG/1.1/DTD/svg11.dtd"><svg t="1638153208676" class="icon" viewBox="0 0 1024 1024" version="1.1" xmlns="http://www.w3.org/2000/svg" p-id="12733" xmlns:xlink="http://www.w3.org/1999/xlink" width="200" height="200"><defs><style type="text/css"></style></defs><path d="M512 947.2C271.36 947.2 76.8 752.64 76.8 512S271.36 76.8 512 76.8 947.2 271.36 947.2 512 752.64 947.2 512 947.2M512 0C230.4 0 0 230.4 0 512s230.4 512 512 512 512-230.4 512-512S793.6 0 512 0" fill="#333333" p-id="12734"></path><path d="M686.08 256h-87.04l-76.8 138.24c-10.24 25.6-20.48 40.96-30.72 56.32-15.36-35.84-51.2-97.28-97.28-189.44V256H307.2l122.88 215.04H332.8v66.56h122.88v46.08H332.8v66.56h122.88v97.28h76.8v-97.28h117.76v-66.56H532.48V537.6h117.76v-66.56h-92.16l128-215.04z" fill="#333333" p-id="12735"></path></svg>