<?xml version="1.0" standalone="no"?><!DOCTYPE svg PUBLIC "-//W3C//DTD SVG 1.1//EN" "http://www.w3.org/Graphics/SVG/1.1/DTD/svg11.dtd"><svg t="1638153562016" class="icon" viewBox="0 0 1024 1024" version="1.1" xmlns="http://www.w3.org/2000/svg" p-id="12339" xmlns:xlink="http://www.w3.org/1999/xlink" width="200" height="200"><defs><style type="text/css"></style></defs><path d="M804.2 96H219.8C152.7 96 96 152.7 96 219.8v584.4C96 871.3 152.7 928 219.8 928h584.4c67.1 0 123.8-56.7 123.8-123.8V219.8C928 152.7 871.3 96 804.2 96zM848 784c0 35.2-28.8 64-64 64H240c-35.2 0-64-28.8-64-64V240c0-35.2 28.8-64 64-64h544c35.2 0 64 28.8 64 64v544z" p-id="12340"></path><path d="M320 491.4c-24.2 0-44 19.8-44 44v181.2c0 8.8 7.2 16 16 16h56c8.8 0 16-7.2 16-16V535.4c0-24.2-19.8-44-44-44zM512 291.4c-24.2 0-44 19.8-44 44v381.2c0 8.8 7.2 16 16 16h56c8.8 0 16-7.2 16-16V335.4c0-24.2-19.8-44-44-44zM704 421.4c-24.2 0-44 19.8-44 44v251.2c0 8.8 7.2 16 16 16h56c8.8 0 16-7.2 16-16V465.4c0-24.2-19.8-44-44-44z" p-id="12341"></path></svg>