<?xml version="1.0" standalone="no"?><!DOCTYPE svg PUBLIC "-//W3C//DTD SVG 1.1//EN" "http://www.w3.org/Graphics/SVG/1.1/DTD/svg11.dtd"><svg t="1638360642495" class="icon" viewBox="0 0 1024 1024" version="1.1" xmlns="http://www.w3.org/2000/svg" p-id="5468" xmlns:xlink="http://www.w3.org/1999/xlink" width="200" height="200"><defs><style type="text/css"></style></defs><path d="M753.2 301.9c14.9 0 28.9 5.9 39.6 16.6 10.7 10.7 16.5 24.7 16.5 39.6v159h124.5c14.1 0 26.1 11.9 26.1 26.1v108.3c0 14.1-11.9 26.1-26.1 26.1H809.3v159c0 14.9-5.9 28.9-16.5 39.6-10.7 10.7-24.7 16.6-39.6 16.6H120.3c-14.9 0-28.9-5.9-39.6-16.6-10.7-10.7-16.5-24.7-16.5-39.6V358.1c0-14.9 5.9-28.9 16.5-39.6 10.7-10.7 24.7-16.6 39.6-16.6h632.9m0-64.2H120.3C54.1 237.7 0 291.9 0 358.1v478.5C0 902.8 54.1 957 120.3 957h632.8c66.2 0 120.3-54.2 120.3-120.4v-94.8h60.3c49.6 0 90.2-40.6 90.2-90.3V543.2c0-49.7-40.6-90.3-90.2-90.3h-60.3v-94.8c0.1-66.2-54.1-120.4-120.2-120.4z" fill="" p-id="5469"></path><path d="M933.8 517.1c14.1 0 26.1 11.9 26.1 26.1v108.3c0 14.1-11.9 26.1-26.1 26.1H681.1c-14.1 0-26.1-11.9-26.1-26.1V543.2c0-14.1 11.9-26.1 26.1-26.1h252.7m0-64.2H681.1c-49.6 0-90.2 40.6-90.2 90.3v108.3c0 49.7 40.6 90.3 90.2 90.3h252.6c49.6 0 90.2-40.6 90.2-90.3V543.2c0.1-49.7-40.5-90.3-90.1-90.3z" fill="" p-id="5470"></path><path d="M799.6 566.3c-17.7 0-32.1 14.4-32.1 32.1s14.4 32.1 32.1 32.1c17.7 0 32.1-14.4 32.1-32.1s-14.4-32.1-32.1-32.1zM135.5 300.3l-19.6-61.1L644.1 69.3c24.6-8 51.2 5.4 59.3 30.1L752.6 249l-61 20L649 139.4c-0.7-2.1-2.9-3.2-5-2.6L135.5 300.3z" fill="" p-id="5471"></path></svg>