<?xml version="1.0" standalone="no"?><!DOCTYPE svg PUBLIC "-//W3C//DTD SVG 1.1//EN" "http://www.w3.org/Graphics/SVG/1.1/DTD/svg11.dtd"><svg t="1637803730369" class="icon" viewBox="0 0 1024 1024" version="1.1" xmlns="http://www.w3.org/2000/svg" p-id="6139" xmlns:xlink="http://www.w3.org/1999/xlink" width="200" height="200"><defs><style type="text/css"></style></defs><path d="M281.6 819.2c-42.3424 0-76.8-34.4576-76.8-76.8S239.2576 665.6 281.6 665.6s76.8 34.4576 76.8 76.8S323.9424 819.2 281.6 819.2z m0-102.4a25.6 25.6 0 1 0 0 51.2 25.6 25.6 0 0 0 0-51.2zM742.4 819.2c-42.3424 0-76.8-34.4576-76.8-76.8s34.4576-76.8 76.8-76.8 76.8 34.4576 76.8 76.8-34.4576 76.8-76.8 76.8z m0-102.4a25.6 25.6 0 1 0 0 51.2 25.6 25.6 0 0 0 0-51.2zM691.2 256h-358.4a25.6 25.6 0 0 1 0-51.2h358.4a25.6 25.6 0 0 1 0 51.2zM793.6 307.2h-563.2a25.6 25.6 0 0 0-25.6 25.6v256a25.6 25.6 0 0 0 25.6 25.6H793.6a25.6 25.6 0 0 0 25.6-25.6v-256a25.6 25.6 0 0 0-25.6-25.6zM256 358.4h512v204.8h-17.8688l-147.1488-98.0992a25.6 25.6 0 1 0-28.3648 42.5984L657.8688 563.2H494.1824L347.0336 465.1008a25.6 25.6 0 1 0-28.3648 42.5984L401.92 563.2H256.0512V358.4z" fill="" p-id="6140"></path><path d="M799.5392 91.2896C729.7536 64.7168 632.9856 51.2 512 51.2s-217.7024 13.4656-287.5392 40.0896C123.5456 129.7408 102.4 188.16 102.4 230.4v563.2c0 61.7984 44.032 113.5104 102.4 125.44V972.8c0 28.2112 22.9888 51.2 51.2 51.2h51.2c28.2112 0 51.2-22.9888 51.2-51.2v-51.2h307.2v51.2c0 28.2112 22.9888 51.2 51.2 51.2h51.2c28.2112 0 51.2-22.9888 51.2-51.2v-53.76c58.368-11.8784 102.4-63.5904 102.4-125.44v-563.2c0-42.24-21.1968-100.6592-122.0608-139.1104zM307.2 972.8H256v-51.2h51.2v51.2z m409.6 0v-51.2h51.2v51.2h-51.2z m153.6-179.2c0 42.3424-34.4576 76.8-76.8 76.8h-563.2c-42.3424 0-76.8-34.4576-76.8-76.8v-563.2c0-38.0416 30.0032-68.7616 89.1392-91.2896C305.8176 115.0976 398.8992 102.4 512 102.4s206.2336 12.6976 269.2608 36.7104C840.3968 161.6384 870.4 192.3584 870.4 230.4v563.2z" fill="" p-id="6141"></path></svg>