<?xml version="1.0" standalone="no"?><!DOCTYPE svg PUBLIC "-//W3C//DTD SVG 1.1//EN" "http://www.w3.org/Graphics/SVG/1.1/DTD/svg11.dtd"><svg t="1638522991671" class="icon" viewBox="0 0 1024 1024" version="1.1" xmlns="http://www.w3.org/2000/svg" p-id="2410" width="230" height="230" xmlns:xlink="http://www.w3.org/1999/xlink"><defs><style type="text/css"></style></defs><path d="M554.420544 135.7223968l0-17.41312427c0-26.20427947-21.43976533-47.6440448-47.6429536-47.6440448l-5.9455456 0c-26.2239264 0-47.6429536 21.4408576-47.6429536 47.6440448l0 19.31019734c-198.63164693 28.29127787-351.852512 199.41099627-351.852512 405.71607573 0 226.0147744 183.87420693 409.88898133 409.91081173 409.88898133 30.22982933 0 60.42036373-3.30841707 89.6809184-9.84557013 14.6100832-3.26693867 23.82147627-17.7296672 20.5545376-32.3386592-3.26693867-14.6308224-17.81371413-23.77999893-32.3593984-20.5545376-25.40418987 5.64974187-51.60737813 8.53792107-77.8760576 8.53792107-196.1429664 0-355.73070613-159.56700053-355.73070613-355.68813654s159.58773973-355.70996693 355.73070613-355.70996693c196.1222272 0 355.68922773 159.58883093 355.68922774 355.70996693 0 26.16280107-2.86744 52.26120213-8.47679574 77.55842347-3.24510827 14.6100832 5.9455456 29.07281173 20.5774592 32.31792 14.5882528 3.30950827 29.07171947-5.9444544 32.3386592-20.5534464 6.47275307-29.13502827 9.76043093-59.19676267 9.76043094-89.32289707C921.1363744 331.9079328 760.2202464 157.37391893 554.420544 135.7223968zM511.9841728 310.27824107c-14.96701333 0-27.088416 12.14214187-27.088416 27.088416l0 204.32177493c0 14.96919573 12.12140267 27.1113376 27.088416 27.1113376l191.21035733 0c14.98884373 0 27.0895072-12.14214187 27.0895072-27.1113376 0-14.96701333-12.10066453-27.088416-27.0895072-27.088416L539.0955104 514.600016 539.0955104 337.36774933C539.0955104 322.420384 526.97410773 310.27824107 511.9841728 310.27824107zM767.21911467 660.25332693c-78.86607253 0-142.80770133 63.9197984-142.80770134 142.78477867 0 78.84533333 63.9416288 142.76404053 142.80770134 142.76404053 78.84533333 0 142.76404053-63.9187072 142.76404053-142.76404053C909.9831552 724.17312533 846.06554027 660.25332693 767.21911467 660.25332693zM814.94829867 821.27424213c8.45387413 0 15.3042944 6.85151253 15.3042944 15.28464747 0 8.45387413-6.85042133 15.28464747-15.3042944 15.28464747l-31.74923414 0 0 29.21907626c0 8.45387413-6.87334293 15.30538667-15.30538666 15.30538667-8.45278187 0-15.3042944-6.85151253-15.3042944-15.30538667l0-29.21907626-34.4889664 0c-8.45387413 0-15.30538667-6.83077333-15.30538667-15.28464747 0-8.43313493 6.85151253-15.28464747 15.30538667-15.28464747L752.58829227 821.27424213l0-16.67416-33.13983894 0c-8.43422613 0-15.2835552-6.85151253-15.2835552-15.28464746 0-8.45278187 6.84932907-15.3042944 15.2835552-15.3042944L740.90895787 774.0111392l-23.4208864-23.44380907c-5.967376-5.9662848-5.967376-15.64266773 0-21.60895253 5.9662848-5.98593173 15.66449813-5.98593173 21.60895253 0l28.96584213 28.94619413 28.96584214-28.94619413c5.98593173-5.98593173 15.66449813-5.98593173 21.62969173 0 5.98702293 5.9662848 5.98702293 15.64266773 0 21.60895253l-23.4427168 23.44380907 21.10248427 0c8.45278187 0 15.28464747 6.85151253 15.28464746 15.3042944 0 8.43313493-6.83186453 15.28464747-15.28464746 15.28464747l-33.120192 0 0 16.67416L814.94829867 821.27424213z" p-id="2411"></path></svg>