<?xml version="1.0" standalone="no"?><!DOCTYPE svg PUBLIC "-//W3C//DTD SVG 1.1//EN" "http://www.w3.org/Graphics/SVG/1.1/DTD/svg11.dtd"><svg t="1637803849177" class="icon" viewBox="0 0 1024 1024" version="1.1" xmlns="http://www.w3.org/2000/svg" p-id="1392" xmlns:xlink="http://www.w3.org/1999/xlink" width="200" height="200"><defs><style type="text/css"></style></defs><path d="M249.856 407.552V86.016c0-9.556992 3.072-17.408 9.216-23.552s13.995008-9.216 23.552-9.216 17.408 3.072 23.552 9.216 9.216 13.995008 9.216 23.552v321.536c19.796992-6.827008 35.668992-18.603008 47.616-35.328 11.947008-16.724992 17.92-35.668992 17.92-56.832V86.016c0-9.556992 3.072-17.408 9.216-23.552s13.995008-9.216 23.552-9.216 17.408 3.072 23.552 9.216 9.216 13.995008 9.216 23.552v229.376c-0.683008 39.595008-12.971008 74.068992-36.864 103.424s-55.296 48.468992-94.208 57.344v461.824c0 9.556992-3.072 17.408-9.216 23.552s-13.995008 9.216-23.552 9.216-17.408-3.072-23.552-9.216-9.216-13.995008-9.216-23.552V476.16c-38.912-8.875008-70.315008-27.988992-94.208-57.344s-36.180992-63.828992-36.864-103.424V86.016c0-9.556992 3.072-17.408 9.216-23.552s13.995008-9.216 23.552-9.216 17.408 3.072 23.552 9.216 9.216 13.995008 9.216 23.552v229.376c0 21.163008 5.972992 40.107008 17.92 56.832s27.819008 28.500992 47.616 35.328z m425.984 165.888c-47.787008-11.604992-86.868992-40.96-117.248-88.064S512.683008 381.611008 512 315.392c1.364992-74.411008 20.48-136.192 57.344-185.344s83.284992-74.752 139.264-76.8c55.979008 2.048 102.4 27.648 139.264 76.8s55.979008 110.932992 57.344 185.344c-0.683008 66.219008-16.212992 122.88-46.592 169.984s-69.460992 76.459008-117.248 88.064v364.544c0 9.556992-3.072 17.408-9.216 23.552s-13.995008 9.216-23.552 9.216-17.408-3.072-23.552-9.216-9.216-13.995008-9.216-23.552V573.44z m32.768-61.44c34.816-1.364992 65.024-20.139008 90.624-56.32s39.083008-82.944 40.448-140.288c-1.364992-57.344-14.848-104.107008-40.448-140.288S743.424 120.148992 708.608 118.784c-34.816 1.364992-65.024 20.139008-90.624 56.32s-39.083008 82.944-40.448 140.288c1.364992 57.344 14.848 104.107008 40.448 140.288s55.808 54.955008 90.624 56.32z" p-id="1393"></path></svg>