<?xml version="1.0" standalone="no"?><!DOCTYPE svg PUBLIC "-//W3C//DTD SVG 1.1//EN" "http://www.w3.org/Graphics/SVG/1.1/DTD/svg11.dtd"><svg t="1638523102497" class="icon" viewBox="0 0 1024 1024" version="1.1" xmlns="http://www.w3.org/2000/svg" p-id="3437" xmlns:xlink="http://www.w3.org/1999/xlink" width="230" height="230"><defs><style type="text/css"></style></defs><path d="M170.24 953.088c-12.544 0-23.552-8.192-26.88-20.224-24.064-81.408-20.224-188.672-19.968-193.024 2.816-71.936 22.784-145.92 57.6-213.248 31.744-61.44 75.008-116.48 126.464-160.768-2.56-4.352-5.12-8.96-7.424-13.568-18.944-37.12-28.928-77.568-27.904-114.176 1.28-41.216 16.128-73.216 42.24-90.368 25.344-16.384 57.088-16.128 88.32 0 24.064-47.872 64.256-77.056 108.288-77.056 42.752 0 81.408 26.88 105.728 72.192 27.648-11.008 55.296-9.472 77.568 5.12 26.112 17.152 41.216 49.152 42.24 90.368 1.024 36.096-8.704 76.032-27.136 112.896 92.16 66.048 191.488 185.6 191.488 393.472v4.352c0 28.416 0.512 114.688-19.968 183.808-3.584 12.032-14.592 20.224-26.88 20.224H170.24z m684.032-28.416zM356.352 192c-4.096 0-7.936 1.024-11.264 3.072-9.984 6.4-16.128 23.296-16.64 44.8-0.768 26.624 7.168 58.368 21.76 86.784 5.12 9.984 11.008 19.456 17.408 28.16 9.216 12.288 6.656 29.696-5.376 39.168-107.264 82.688-177.152 216.32-182.528 348.16 0 1.024-3.072 84.736 12.544 154.624l640.256-0.256c12.8-57.6 12.544-123.904 12.288-147.456v-4.608c0-157.696-65.024-282.624-187.904-360.96-6.4-4.096-10.752-10.496-12.288-17.664-1.536-7.424-0.256-14.848 3.84-21.248 3.84-5.888 7.168-11.776 10.24-17.92 14.592-28.416 22.528-60.16 21.76-86.784-0.512-21.504-6.912-38.4-16.64-44.8-14.592-9.472-37.12 5.376-43.52 9.984-7.168 5.376-16.384 6.912-25.088 4.096-8.448-2.56-15.36-9.216-18.176-17.664-13.824-38.912-39.424-64.256-66.048-64.256-28.16 0-55.552 28.928-68.096 71.936-2.816 9.216-9.984 16.384-19.2 19.2-9.216 2.56-19.2 0.256-26.368-6.144-11.776-10.496-27.648-20.224-40.96-20.224z" fill="#333333" p-id="3438"></path><path d="M607.744 620.032h-191.488c-15.616 0-28.416-12.8-28.416-28.416s12.8-28.416 28.416-28.416h191.488c15.616 0 28.416 12.8 28.416 28.416 0 15.872-12.8 28.416-28.416 28.416zM607.744 726.528h-191.488c-15.616 0-28.416-12.8-28.416-28.416s12.8-28.416 28.416-28.416h191.488c15.616 0 28.416 12.8 28.416 28.416s-12.8 28.416-28.416 28.416z" fill="#333333" p-id="3439"></path><path d="M483.584 811.52v-219.904c0-15.616 12.8-28.416 28.416-28.416s28.416 12.8 28.416 28.416V811.52c0 15.616-12.8 28.416-28.416 28.416s-28.416-12.8-28.416-28.416z" fill="#333333" p-id="3440"></path><path d="M482.048 593.408l-72.192-60.416c-12.032-9.984-13.568-27.904-3.584-39.936 9.984-12.032 27.904-13.568 39.936-3.584l72.192 60.416c12.032 9.984 13.568 27.904 3.584 39.936-9.984 12.288-27.904 13.824-39.936 3.584z" fill="#333333" p-id="3441"></path><path d="M545.536 593.408l72.192-60.416c12.032-9.984 13.568-27.904 3.584-39.936-9.984-12.032-27.904-13.568-39.936-3.584l-72.192 60.416c-12.032 9.984-13.568 27.904-3.584 39.936 9.984 12.288 27.904 13.824 39.936 3.584z" fill="#333333" p-id="3442"></path></svg>