<?xml version="1.0" standalone="no"?><!DOCTYPE svg PUBLIC "-//W3C//DTD SVG 1.1//EN" "http://www.w3.org/Graphics/SVG/1.1/DTD/svg11.dtd"><svg t="1637803616074" class="icon" viewBox="0 0 1024 1024" version="1.1" xmlns="http://www.w3.org/2000/svg" p-id="5143" xmlns:xlink="http://www.w3.org/1999/xlink" width="200" height="200"><defs><style type="text/css"></style></defs><path d="M254.112 128C183.552 128 128 185.408 128 256v512c0 70.592 55.552 128 126.112 128H896V128H254.112zM832 832H254.112c-35.328 0-64-28.704-64-64s28.672-64 64-64H832v128z m0-192H254.112c-23.296 0-30.112 6.24-62.112 17.184V256c0-35.296 26.816-64 62.112-64H512v320l96-64 96 64V192h128v448z" p-id="5144"></path></svg>