<?xml version="1.0" standalone="no"?><!DOCTYPE svg PUBLIC "-//W3C//DTD SVG 1.1//EN" "http://www.w3.org/Graphics/SVG/1.1/DTD/svg11.dtd"><svg t="1637803696986" class="icon" viewBox="0 0 1024 1024" version="1.1" xmlns="http://www.w3.org/2000/svg" p-id="5712" xmlns:xlink="http://www.w3.org/1999/xlink" width="200" height="200"><defs><style type="text/css"></style></defs><path d="M874.51 424.97h-84.39c20.27-28.98 48.61-67.94 81.71-109.16 8.85-11.03 18.37-22.62 28.75-32.61 39.05-37.51 39.75-70.21 33.47-91.05-13.1-43.47-67.42-74.17-161.46-91.24-38.87-7.04-78.79-0.61-112.41 18.18-90.71 50.73-109.02 31.16-134.35 4.05-6.8-7.28-13.85-14.82-22.33-21.69-43.05-34.85-163.74-37.04-230.72-25.18-48.16 8.52-78.44 24.12-92.59 47.71-30.21 50.34 18.56 199.83 57.59 300.99h-88.1c-45.54 0-82.59 37.05-82.59 82.6v364.31c0 45.55 37.05 82.6 82.59 82.6H874.5c45.54 0 82.59-37.05 82.59-82.6V507.57c0.01-45.55-37.04-82.6-82.58-82.6zM237.09 158.52c2.71-3.45 21.02-14.43 67.92-19.63 74.61-8.23 144.8 4.72 156.61 14.3 4.89 3.97 10.09 9.51 15.58 15.38 40.06 42.92 89.71 78.87 215.47 8.62 20.14-11.27 44.28-15.1 68.04-10.81 76.79 13.95 107.02 36.34 109.63 44.98 0.52 1.73-1.27 9.82-15.87 23.84-13.24 12.74-24.76 26.76-34.52 38.92-52.97 65.98-93.42 125.22-110.43 150.85h-27.53l41.4-65.07c9.87-15.51 5.3-36.1-10.22-45.96-15.49-9.9-36.08-5.29-45.95 10.21l-64.15 100.82h-55.81l25.22-146.24c3.13-18.11-9.02-35.34-27.14-38.46-18.07-3.06-35.33 9.01-38.45 27.15l-27.17 157.55H416.1l-6.74-89.38c-1.38-18.31-17.3-31.92-35.69-30.68-18.33 1.39-32.07 17.38-30.68 35.71l6.36 84.35H309.3c-48.28-120.96-81-243.04-72.21-266.45z m-87.4 333.02h724.82c8.84 0 16.02 7.19 16.02 16.03v0.15H133.66v-0.15c0-8.84 7.19-16.03 16.03-16.03z m-16.03 82.75h756.87v224.98H133.66V574.29z m740.85 313.62H149.69c-8.84 0-16.02-7.19-16.02-16.03v-6.05h756.87v6.05c-0.01 8.84-7.19 16.03-16.03 16.03z" fill="#666666" p-id="5713"></path></svg>