<?xml version="1.0" standalone="no"?><!DOCTYPE svg PUBLIC "-//W3C//DTD SVG 1.1//EN" "http://www.w3.org/Graphics/SVG/1.1/DTD/svg11.dtd"><svg t="1638521013661" class="icon" viewBox="0 0 1024 1024" version="1.1" xmlns="http://www.w3.org/2000/svg" p-id="1780" xmlns:xlink="http://www.w3.org/1999/xlink" width="200" height="200"><defs><style type="text/css"></style></defs><path d="M66.465628 585.712167c0.306542-66.25267 29.442884-133.075904 69.967764-198.265564l0 0c40.740448-65.097698 93.957163-128.510403 146.893046-184.666957l0 0C389.212048 90.60992 494.071236 7.712997 494.790127 7.090025l0 0c11.952179-9.475121 28.777391-9.430623 40.742425 0l0 0c1.191559 1.327031 236.24911 185.996954 358.346848 380.356578l0 0c40.517957 65.189661 69.649355 132.012895 70.010284 198.265564l0 0c-0.138438 242.721106-201.492168 437.835219-448.737244 438.270311l0 0 0-32.800016 0-32.859347c212.205324-0.049442 382.662566-167.485761 383.058105-372.610949l0 0c1.552488-80.419864-72.724666-197.155091-160.979155-296.173167l0 0c-85.401669-97.151135-181.107112-180.167708-222.04434-214.289811l0 0c-4.919508 4.10371-10.637014 8.934222-17.074401 14.434182l0 0c-23.393126 19.927221-55.847045 48.537497-91.89542 82.807927l0 0c-72.007753 68.509216-158.28455 160.353216-214.116763 249.764655l0 0c-37.472312 59.515663-60.27213 117.756704-59.965588 163.456214l0 0c0.357962 205.125188 170.852781 372.561506 383.018551 372.610949l0 0 0 32.859347 0 32.800016C268.001305 1023.547385 66.594178 828.438217 66.465628 585.712167L66.465628 585.712167zM457.909145 835.266197c-8.20742-3.841666-12.706669-12.780832-10.938612-21.6755l0 0 34.367336-171.955344-171.386757 0c-7.606202 0-14.508346-4.336089-17.774504-11.193735l0 0c-3.284946-6.847757-2.305988-14.990903 2.475081-20.919033l0 0 254.087889-312.741278c5.710585-7.030694 15.529824-9.240764 23.717467-5.396132l0 0c8.172811 3.848588 12.686892 12.830275 10.921802 21.670556l0 0-34.421723 171.920734 171.480698 0c7.564671 0 14.511312 4.380587 17.725061 11.235266l0 0c3.282968 6.854679 2.308955 14.990903-2.46717 20.879479l0 0L481.557393 829.872043c-3.836722 4.721739-9.489953 7.272961-15.289534 7.272961l0 0C463.448659 837.145004 460.576062 836.526976 457.909145 835.266197L457.909145 835.266197zM351.304644 602.27039l154.093822 0c5.928131 0 11.500277 2.655051 15.218337 7.208686l0 0c3.762558 4.553635 5.255716 10.526264 4.098766 16.365398l0 0-23.52662 117.385887 177.806344-218.840479-154.042402 0c-5.942963 0-11.500277-2.659995-15.223281-7.21363l0 0c-3.755636-4.598133-5.255716-10.568784-4.113599-16.365398l0 0 23.465311-117.316668L351.304644 602.27039 351.304644 602.27039z" p-id="1781"></path></svg>