<?xml version="1.0" standalone="no"?><!DOCTYPE svg PUBLIC "-//W3C//DTD SVG 1.1//EN" "http://www.w3.org/Graphics/SVG/1.1/DTD/svg11.dtd"><svg t="1637803678861" class="icon" viewBox="0 0 1024 1024" version="1.1" xmlns="http://www.w3.org/2000/svg" p-id="5428" xmlns:xlink="http://www.w3.org/1999/xlink" width="200" height="200"><defs><style type="text/css"></style></defs><path d="M788.672 851.328c5.248-43.072 3.52-86.784-0.832-128 21.312-9.216 34.816-24.064 39.68-45.12 31.808 0.576 62.592-1.472 95.232-11.84-27.392 75.648-72.576 132.48-130.304 181.824l-3.84 3.136z m-364.416 88.768c86.464-102.4 198.336-182.272 271.744-227.776 10.368 8.96 25.216 17.152 39.04 19.968 5.184 50.24 1.536 101.376-3.968 158.4-71.232 40.32-137.792 58.88-219.136 58.88-32.768 0-53.568-1.536-84.288-8.384l-3.392-1.088z m-272-177.408c7.552-50.88 26.752-136 81.28-229.888 5.888 1.28 16.512 3.072 22.912 3.072 13.184 0 25.856-1.6 36.8-9.152 90.368 66.752 210.56 120.32 366.72 139.52-95.552 46.08-214.016 133.76-299.648 255.616-86.528-32-150.208-79.616-203.904-154.304l-4.16-4.864z m-40.96-431.36c13.184 26.88 31.68 58.048 64.704 85.696a106.112 106.112 0 0 0-6.208 33.6c0 19.008 4.736 39.36 17.664 52.608-43.264 62.464-66.112 132.736-76.096 187.904-26.24-54.208-38.592-118.016-38.592-180.864 0-62.912 13.504-122.688 37.568-176.768-0.192 0.128-1.664 2.432 0.896-2.176z m213.504-217.6c27.968 14.976 67.2 38.72 111.168 72.96a77.248 77.248 0 0 0-4.608 52.48 792.384 792.384 0 0 0-146.88 130.88 109.184 109.184 0 0 0-31.36-6.08c-14.912 0-30.4 4.096-42.432 11.072-27.776-26.944-55.424-71.872-69.12-99.392a428.8 428.8 0 0 1 183.232-161.92z m372.352-0.96c-46.272 14.208-89.408 30.4-128.96 48.64a81.92 81.92 0 0 0-57.344-23.552c-13.312 0-22.784 2.176-33.92 7.872a868.48 868.48 0 0 0-81.664-58.304 406.528 406.528 0 0 1 116.672-16 435.84 435.84 0 0 1 185.216 41.344z m-365.568 291.2c37.376-42.368 79.04-79.104 132.864-116.864 13.76 10.368 27.904 14.848 46.528 14.848 13.44 0 23.232-2.304 34.432-8 62.592 71.808 126.144 163.008 161.28 282.112a58.624 58.624 0 0 0-32.832 35.52C528.256 594.816 419.008 541.952 334.08 480.832a58.368 58.368 0 0 0 6.72-30.208c0-15.808-3.776-29.952-11.456-42.496l2.176-4.224z m619.776 106.432c0 31.808-0.64 62.208-9.28 90.496-33.92 10.816-73.6 20.224-113.728 20.224-8.832-29.952-36.608-54.464-65.472-55.04-25.344-129.472-102.912-240.832-176-315.136 4.416-10.112 6.144-19.328 6.144-31.04 0-3.2-0.512-6.208-0.96-9.28a979.456 979.456 0 0 1 171.072-60.032 438.656 438.656 0 0 1 188.224 359.808zM512.064 0.64C229.952 0.64 0.512 229.504 0.512 510.656S229.952 1020.608 512 1020.608s511.616-228.8 511.616-509.952S794.176 0.64 512 0.64z" p-id="5429"></path></svg>