<?xml version="1.0" standalone="no"?><!DOCTYPE svg PUBLIC "-//W3C//DTD SVG 1.1//EN" "http://www.w3.org/Graphics/SVG/1.1/DTD/svg11.dtd"><svg t="1638523035448" class="icon" viewBox="0 0 1025 1024" version="1.1" xmlns="http://www.w3.org/2000/svg" p-id="2694" xmlns:xlink="http://www.w3.org/1999/xlink" width="230.224609375" height="230"><defs><style type="text/css"></style></defs><path d="M641.617139 454.819493H562.346558l88.440832-97.1226c5.003138-5.735862 5.003138-14.280628 0-20.009675l-18.202186-20.078832c-2.295971-2.65014-5.629999-4.172616-9.139049-4.172616a12.082329 12.082329 0 0 0-9.132359 4.172616l-101.368501 111.37065-100.250531-110.051771c-2.285091-2.622939-5.591981-4.129221-9.069891-4.12922-3.476534 0-6.784738 1.506219-9.063075 4.12922l-18.065058 19.867232c-5.013955 5.677459-5.013955 14.195087 0 19.872546l87.539776 96.15245H385.736149c-3.789934 0-7.421167 1.510346-10.098444 4.198503-2.671838 2.686782-4.160423 6.32877-4.144103 10.118829v28.554315c0 7.919217 6.391238 14.31183 14.242547 14.31183h99.491918v57.107379H385.736149c-3.789934 0-7.421167 1.511659-10.098444 4.193063-2.671838 2.688095-4.160423 6.328833-4.144103 10.118767v28.554377c0 7.849996 6.391238 14.242547 14.242547 14.242547h99.491918v71.351426c0 7.851372 6.387173 14.243923 14.24261 14.243923h28.411934a14.233668 14.233668 0 0 0 10.069993-4.172616 14.234168 14.234168 0 0 0 4.172554-10.071244v-71.488492h99.491918c3.773738 0 7.399469-1.500779 10.071307-4.171241 2.671838-2.671838 4.171241-6.297693 4.17124-10.071306v-28.554377c0.01632-3.789996-1.473578-7.432047-4.150918-10.118829-2.670462-2.688095-6.301695-4.193001-10.091691-4.193001h-99.491856v-57.039596h99.491918a14.227477 14.227477 0 0 0 10.091692-4.198442c2.677278-2.686782 4.167239-6.328833 4.150918-10.118829v-28.479716c0.01632-3.789996-1.473578-7.432047-4.150918-10.118829a14.22185 14.22185 0 0 0-10.091629-4.198441z m0 0" fill="#333333" p-id="2695"></path><path d="M968.637767 140.859473H58.710081c-15.11784 0.016383-29.615571 6.048011-40.285226 16.759873-10.675157 10.713175-16.648508 25.225726-16.611865 40.349006v162.017696s-6.254235 33.351229 27.647945 41.545889l3.058584 0.838525c10.421473 3.121052 46.061857 16.044657 67.391787 51.89808l0.069221 0.137128a68.255699 68.255699 0 0 1 2.7777 5.073609l1.599826 3.12099 0.694769 1.462823 1.526541 3.472469c15.519531 36.717773 10.722617 78.872953-12.641345 111.164364-17.995901 24.450981-42.384477 36.123489-55.37599 40.920341-2.983924 0.970276-5.973288 1.945866-9.031873 2.70848v0.138379c-33.971337 8.200101-27.647882 41.54589-27.647882 41.54589v161.880629c-0.038018 31.437941 25.395432 56.965061 56.82787 57.039659h909.858466c31.437941-0.074598 56.86989-25.601781 56.833248-57.039659v-171.257167c0-5.121131-1.3881-10.140527-4.028673-14.523493-4.886457-9.106533-13.611621-15.537165-23.761778-17.508794l0.067908-0.275444c-5.845727-1.473641-11.559829-3.423634-17.088155-5.836285-41.906749-17.824944-69.062209-59.022105-68.918328-104.558774 0-32.933342 13.892568-62.394089 36.191334-83.16644a127.257231 127.257231 0 0 1 40.927095-24.5948c2.983924-1.039434 5.973288-1.876708 8.957087-2.70848v-0.069158c10.522021-2.015149 19.475169-8.862292 24.18104-18.483071a28.725396 28.725396 0 0 0 3.54169-13.755439V197.96829c0.036768-15.10696-5.931206-29.614133-16.58604-40.321806-10.658774-10.713175-25.13487-16.750306-40.24727-16.787011z m0 656.479857c0.02176 7.552792-2.963602 14.804315-8.289581 20.162935-5.332795 5.354555-12.568123 8.375122-20.120915 8.391379H87.1953c-7.554168-0.016258-14.789433-3.036824-20.120915-8.391379-5.327417-5.35862-8.311279-12.610143-8.290957-20.162935v-124.155939c68.166594-24.335676 113.677501-88.90224 113.677501-161.287597 0-72.384107-45.510907-136.950733-113.677501-161.286284V226.453509c-0.020322-7.552854 2.963602-14.804378 8.290957-20.162935 5.331482-5.354555 12.56681-8.375122 20.120915-8.39138h853.031908c7.552792 0.016258 14.78812 3.036824 20.120915 8.39138 5.326042 5.358557 8.311341 12.610143 8.289581 20.162935v124.156001c-68.165218 24.335614-113.676125 88.902177-113.676125 161.286284 0 72.385357 45.510907 136.951983 113.676125 161.287597v124.155939z m0 0" fill="#333333" p-id="2696"></path></svg>