<?xml version="1.0" standalone="no"?><!DOCTYPE svg PUBLIC "-//W3C//DTD SVG 1.1//EN" "http://www.w3.org/Graphics/SVG/1.1/DTD/svg11.dtd"><svg t="1638521074034" class="icon" viewBox="0 0 1024 1024" version="1.1" xmlns="http://www.w3.org/2000/svg" p-id="2368" xmlns:xlink="http://www.w3.org/1999/xlink" width="200" height="200"><defs><style type="text/css"></style></defs><path d="M298.133333 768.085333a96 96 0 1 1 0 192 96 96 0 0 1 0-192z m490.666667 0a96 96 0 1 1 0 192 96 96 0 0 1 0-192z m-490.666667 64a32 32 0 1 0 0 64 32 32 0 0 0 0-64z m490.666667 0a32 32 0 1 0 0 64 32 32 0 0 0 0-64zM157.354667 85.333333l6.229333 85.418667h790.997333l-74.666666 448H196.309333l3.050667 41.770667h739.2v64H139.84L97.856 149.333333H48.298667L42.666667 85.333333h114.688z m721.664 149.418667H168.277333l23.36 320h634.048l53.333334-320z" p-id="2369"></path></svg>